<svg width="12" height="12" viewBox="0 0 12 12" fill="none" xmlns="http://www.w3.org/2000/svg">
<path d="M2.66667 5.33333C3.37391 5.33333 4.05219 5.05238 4.55229 4.55229C5.05238 4.05219 5.33333 3.37391 5.33333 2.66667C5.33333 1.95942 5.05238 1.28115 4.55229 0.781048C4.05219 0.280951 3.37391 0 2.66667 0C1.95942 0 1.28115 0.280951 0.781048 0.781048C0.280951 1.28115 0 1.95942 0 2.66667C0 3.37391 0.280951 4.05219 0.781048 4.55229C1.28115 5.05238 1.95942 5.33333 2.66667 5.33333ZM9.33333 5.33333C10.0406 5.33333 10.7189 5.05238 11.219 4.55229C11.719 4.05219 12 3.37391 12 2.66667C12 1.95942 11.719 1.28115 11.219 0.781048C10.7189 0.280951 10.0406 0 9.33333 0C8.62609 0 7.94781 0.280951 7.44772 0.781048C6.94762 1.28115 6.66667 1.95942 6.66667 2.66667C6.66667 3.37391 6.94762 4.05219 7.44772 4.55229C7.94781 5.05238 8.62609 5.33333 9.33333 5.33333ZM5.33333 9.33333C5.33333 10.0406 5.05238 10.7189 4.55229 11.219C4.05219 11.719 3.37391 12 2.66667 12C1.95942 12 1.28115 11.719 0.781048 11.219C0.280951 10.7189 0 10.0406 0 9.33333C0 8.62609 0.280951 7.94781 0.781048 7.44772C1.28115 6.94762 1.95942 6.66667 2.66667 6.66667C3.37391 6.66667 4.05219 6.94762 4.55229 7.44772C5.05238 7.94781 5.33333 8.62609 5.33333 9.33333ZM9.33333 12C10.0406 12 10.7189 11.719 11.219 11.219C11.719 10.7189 12 10.0406 12 9.33333C12 8.62609 11.719 7.94781 11.219 7.44772C10.7189 6.94762 10.0406 6.66667 9.33333 6.66667C8.62609 6.66667 7.94781 6.94762 7.44772 7.44772C6.94762 7.94781 6.66667 8.62609 6.66667 9.33333C6.66667 10.0406 6.94762 10.7189 7.44772 11.219C7.94781 11.719 8.62609 12 9.33333 12Z" fill="#003C3B"/>
</svg>
