<svg width="15" height="15" viewBox="0 0 15 15" fill="none" xmlns="http://www.w3.org/2000/svg">
<path d="M8.00553 1.02333C7.94182 0.953232 7.86416 0.897226 7.77754 0.858902C7.69091 0.820578 7.59723 0.800781 7.50251 0.800781C7.40778 0.800781 7.3141 0.820578 7.22748 0.858902C7.14085 0.897226 7.06319 0.953232 6.99948 1.02333L0.881564 7.82081C0.79135 7.91808 0.731569 8.03961 0.70959 8.17044C0.687611 8.30126 0.704394 8.43566 0.757871 8.55707C0.811348 8.67847 0.899181 8.78157 1.01054 8.85367C1.12191 8.92576 1.25193 8.96369 1.38459 8.96279H2.74413V13.721C2.74413 13.9013 2.81575 14.0742 2.94323 14.2017C3.07071 14.3292 3.24361 14.4008 3.4239 14.4008H11.5811C11.7614 14.4008 11.9343 14.3292 12.0618 14.2017C12.1893 14.0742 12.2609 13.9013 12.2609 13.721V8.96279H13.6204C13.8007 8.96279 13.9736 8.89117 14.1011 8.7637C14.2286 8.63622 14.3002 8.46332 14.3002 8.28304C14.3014 8.11223 14.2383 7.94721 14.1234 7.82081L8.00553 1.02333Z" fill="#003C3B"/>
</svg>
