<svg width="14" height="13" viewBox="0 0 14 13" fill="none" xmlns="http://www.w3.org/2000/svg">
<path d="M12.2197 4.00002L10.7063 2.48668C10.753 2.20668 10.8263 1.94668 10.9197 1.72002C10.993 1.54668 11.0197 1.34668 10.9797 1.14002C10.893 0.660017 10.4263 0.326684 9.93301 0.33335C8.87301 0.35335 7.93301 0.87335 7.33301 1.66668H3.99967C1.97301 1.66668 0.333008 3.30668 0.333008 5.33335C0.333008 6.83335 1.24634 10.32 1.71967 12.0267C1.87967 12.6 2.40634 13 3.00634 13H4.33301C5.06634 13 5.66634 12.4 5.66634 11.6667H6.99967C6.99967 12.4 7.59967 13 8.33301 13H9.67301C10.2597 13 10.7797 12.6133 10.953 12.0467L11.7863 9.27335L13.213 8.79335C13.3454 8.74863 13.4604 8.66342 13.5418 8.54977C13.6231 8.43612 13.6667 8.29978 13.6663 8.16002V4.66668C13.6663 4.30002 13.3663 4.00002 12.9997 4.00002H12.2197ZM6.99967 5.00002H4.99967C4.63301 5.00002 4.33301 4.70002 4.33301 4.33335C4.33301 3.96668 4.63301 3.66668 4.99967 3.66668H6.99967C7.36634 3.66668 7.66634 3.96668 7.66634 4.33335C7.66634 4.70002 7.36634 5.00002 6.99967 5.00002ZM9.66634 6.33335C9.29967 6.33335 8.99967 6.03335 8.99967 5.66668C8.99967 5.30002 9.29967 5.00002 9.66634 5.00002C10.033 5.00002 10.333 5.30002 10.333 5.66668C10.333 6.03335 10.033 6.33335 9.66634 6.33335Z" fill="#003C3B"/>
</svg>
