<svg width="14" height="12" viewBox="0 0 14 12" fill="none" xmlns="http://www.w3.org/2000/svg">
<path d="M2.37331 5.54732e-06C2.08665 5.54732e-06 1.81331 0.0933389 1.55998 0.280006C1.30665 0.466672 1.15998 0.706672 1.09331 1.00001L0.406647 3.94001C0.23998 4.66667 0.373314 5.28 0.793314 5.82C0.873314 5.9 0.953314 5.98001 1.02665 6.04667C1.41998 6.42667 1.85331 6.66667 2.47998 6.66667C3.10665 6.66667 3.60665 6.39334 3.97998 6.03334C4.39998 6.44667 4.90665 6.66667 5.53331 6.66667C6.09331 6.66667 6.62665 6.42001 6.99998 6.04667C7.45331 6.46667 7.96665 6.66667 8.53331 6.66667C9.11331 6.66667 9.60665 6.44667 10.0266 6.03334C10.4066 6.41334 10.9066 6.66667 11.54 6.66667C12.1733 6.66667 12.62 6.43334 13 6.04001C13.06 5.98001 13.12 5.91334 13.1866 5.84667C13.6266 5.30001 13.76 4.66667 13.5933 3.94001L12.9066 1.00001C12.82 0.706672 12.6666 0.466672 12.42 0.280006C12.1957 0.0980554 11.9155 -0.000853374 11.6266 5.54732e-06M11.5933 1.31334L12.3133 4.25334C12.3733 4.54001 12.3133 4.80001 12.1266 5.03334C11.96 5.24001 11.7533 5.33334 11.5 5.33334C11.2933 5.33334 11.1133 5.26667 10.9666 5.10667C10.82 4.95334 10.74 4.77334 10.72 4.56001L10.3133 1.33334M2.37331 1.33334H3.68665L3.27998 4.56001C3.19998 5.08667 2.93998 5.33334 2.49998 5.33334C2.22665 5.33334 2.01998 5.24001 1.87331 5.03334C1.68665 4.80001 1.62665 4.54001 1.68665 4.25334M5.03331 1.33334H6.33331V4.46667C6.33331 4.70001 6.25998 4.9 6.09331 5.08001C5.92665 5.25334 5.71998 5.33334 5.46665 5.33334C5.23998 5.33334 5.04665 5.25334 4.89331 5.06001C4.73998 4.86667 4.66665 4.66667 4.66665 4.44V4.33334M7.66665 1.33334H8.96665L9.33331 4.33334C9.38665 4.61334 9.33331 4.84667 9.13998 5.04667C8.96665 5.24667 8.73998 5.33334 8.46665 5.33334C8.25998 5.33334 8.07331 5.25334 7.90665 5.08001C7.82831 4.99856 7.76679 4.90246 7.72561 4.79722C7.68443 4.69198 7.66439 4.57966 7.66665 4.46667M0.99998 7.35334V10.6667C0.99998 11.4067 1.59331 12 2.33331 12H11.6666C12.0203 12 12.3594 11.8595 12.6095 11.6095C12.8595 11.3594 13 11.0203 13 10.6667V7.36667C12.6333 7.75334 12.1666 7.97334 11.6666 8C11 8.02001 10.5 7.82667 10.0266 7.36667C9.62665 7.76667 9.09331 8 8.53331 8C7.93331 8 7.39998 7.76 6.99998 7.38C6.61998 7.76 6.09998 8 5.51998 8C4.91331 8 4.37998 7.76667 3.97998 7.36667C3.59331 7.76001 3.06665 8 2.48665 8C1.88665 8 1.43998 7.76667 0.99998 7.35334Z" fill="#003C3B"/>
</svg>
