<svg width="142" height="24" viewBox="0 0 142 24" fill="none" xmlns="http://www.w3.org/2000/svg">
<g clip-path="url(#clip0_2003_861)">
<path d="M0 11.0391L13.2709 0.392456L18.2852 6.64279C21.0546 10.0948 20.5012 15.1381 17.0492 17.9075L16.2452 18.5524C12.8119 21.3069 7.79585 20.7564 5.04145 17.3232L0 11.0391Z" fill="white"/>
<path d="M5.24707 6.793L7.78221 4.75916L11.5832 9.49709C11.7501 9.70516 11.7168 10.0092 11.5087 10.176L9.72704 11.6054C9.51897 11.7723 9.21496 11.739 9.0481 11.5309L5.24707 6.793Z" fill="#FFA500"/>
<path d="M9.62606 10.1736C9.99287 10.1736 10.2902 9.87629 10.2902 9.50949C10.2902 9.14269 9.99287 8.84534 9.62606 8.84534C9.25926 8.84534 8.96191 9.14269 8.96191 9.50949C8.96191 9.87629 9.25926 10.1736 9.62606 10.1736Z" fill="white"/>
<path d="M18.8037 6.82271L13.5811 0.241577L19.2867 4.10573C19.5182 4.32711 19.9629 4.9812 19.8905 5.82648C19.818 6.67177 19.1358 6.84284 18.8037 6.82271Z" fill="#FFA500"/>
<path d="M20.3738 4.46801L13.6719 0.0302734L19.8907 1.69065C20.253 1.81141 20.9956 2.25216 21.0681 3.04914C21.1406 3.84612 20.6354 4.32713 20.3738 4.46801Z" fill="white"/>
<path d="M32.7275 2.90417C34.1571 2.90417 35.412 3.15039 36.492 3.6428C37.5722 4.13522 38.4935 4.8659 39.256 5.83484L37.4213 7.9554C36.7701 7.12941 36.0553 6.52581 35.2769 6.14458C34.5145 5.74748 33.6249 5.54892 32.6083 5.54892C31.9412 5.54892 31.3852 5.63629 30.9405 5.81101C30.5116 5.98574 30.1939 6.21606 29.9874 6.50199C29.7968 6.7879 29.7015 7.10559 29.7015 7.45504C29.7015 7.88393 29.8683 8.24929 30.2019 8.55103C30.5354 8.83699 31.1073 9.07525 31.9174 9.2659L34.848 9.93299C36.4047 10.2824 37.5166 10.8067 38.1837 11.5056C38.8668 12.1886 39.2083 13.0781 39.2083 14.1741C39.2083 15.2066 38.9382 16.0962 38.3982 16.8427C37.8582 17.5734 37.1036 18.1373 36.1347 18.5343C35.1657 18.9156 34.0539 19.1062 32.799 19.1062C31.7029 19.1062 30.6943 18.9792 29.773 18.725C28.8676 18.455 28.0575 18.0896 27.3427 17.629C26.6279 17.1683 26.0322 16.6362 25.5557 16.0326L27.4142 13.8168C27.7795 14.3251 28.2322 14.7777 28.7723 15.1749C29.3123 15.5719 29.9239 15.8897 30.6069 16.1279C31.3059 16.3503 32.0365 16.4614 32.799 16.4614C33.4502 16.4614 33.9982 16.39 34.443 16.247C34.9037 16.0882 35.2452 15.8737 35.4675 15.6037C35.7058 15.3178 35.8249 14.9763 35.8249 14.5792C35.8249 14.1662 35.682 13.8168 35.396 13.5308C35.126 13.229 34.6177 12.9987 33.8711 12.8399L30.6784 12.1251C29.7571 11.9026 28.9629 11.6168 28.2957 11.2673C27.6445 10.902 27.1441 10.4413 26.7947 9.88537C26.4611 9.31352 26.2943 8.63842 26.2943 7.86008C26.2943 6.92292 26.5485 6.08105 27.0568 5.33448C27.5651 4.58792 28.2957 4.0002 29.2488 3.57132C30.2178 3.12656 31.3773 2.90417 32.7275 2.90417Z" fill="white"/>
<path d="M47.6829 11.2673C47.6829 10.5842 47.4843 10.0522 47.0872 9.67088C46.706 9.28968 46.1977 9.09911 45.5624 9.09911C44.9746 9.09911 44.4584 9.24998 44.0136 9.55179C43.5689 9.8536 43.2432 10.354 43.0367 11.0528L40.249 10.1951C40.5191 9.14673 41.1068 8.30485 42.0122 7.66953C42.9335 7.03411 44.1645 6.71643 45.7053 6.71643C46.7537 6.71643 47.6671 6.88322 48.4453 7.21679C49.2237 7.53448 49.8273 8.01896 50.2562 8.6702C50.7009 9.32145 50.9233 10.1395 50.9233 11.1243V15.9611C50.9233 16.5647 51.2092 16.8665 51.7811 16.8665C52.0511 16.8665 52.3052 16.8268 52.5435 16.7474L52.3529 18.7726C51.9399 18.9792 51.4237 19.0824 50.8042 19.0824C50.2483 19.0824 49.7479 18.9871 49.3031 18.7965C48.8584 18.6059 48.5089 18.3199 48.2548 17.9387C48.0006 17.5416 47.8735 17.0492 47.8735 16.4614V16.3662L48.4453 16.2709C48.3501 16.8745 48.088 17.3907 47.6591 17.8196C47.2302 18.2326 46.706 18.5503 46.0865 18.7726C45.4829 18.995 44.8555 19.1062 44.2043 19.1062C43.3942 19.1062 42.6952 18.9871 42.1075 18.7488C41.5198 18.4947 41.0671 18.1294 40.7494 17.6528C40.4317 17.1762 40.2729 16.5885 40.2729 15.8897C40.2729 15.0001 40.5588 14.2774 41.1306 13.7214C41.7025 13.1496 42.5205 12.7604 43.5847 12.5539L48.0641 11.6485L48.0403 13.6738L45.1811 14.2456C44.641 14.3568 44.228 14.5077 43.9422 14.6984C43.6721 14.8731 43.5371 15.1669 43.5371 15.5799C43.5371 15.977 43.68 16.2788 43.966 16.4853C44.2677 16.6918 44.6252 16.795 45.0382 16.795C45.3717 16.795 45.6974 16.7553 46.0151 16.6759C46.3327 16.5965 46.6187 16.4694 46.8728 16.2947C47.127 16.1199 47.3255 15.8817 47.4685 15.5799C47.6114 15.2781 47.6829 14.9128 47.6829 14.4839V11.2673Z" fill="white"/>
<path d="M60.9705 6.95471H64.3538L59.8268 18.868H56.0622L51.5352 6.95471H55.0138L57.9683 16.3662L60.9705 6.95471Z" fill="white"/>
<path d="M70.5973 19.1062C69.3424 19.1062 68.2463 18.86 67.3092 18.3676C66.3879 17.8752 65.6731 17.1683 65.1648 16.247C64.6565 15.3258 64.4023 14.2138 64.4023 12.9113C64.4023 11.6088 64.6565 10.4969 65.1648 9.57564C65.6731 8.65436 66.3799 7.94749 67.2854 7.45505C68.2066 6.96263 69.255 6.71643 70.4305 6.71643C71.6377 6.71643 72.6622 6.96263 73.5041 7.45505C74.346 7.93156 74.9893 8.59081 75.434 9.43262C75.879 10.2587 76.1009 11.2038 76.1009 12.268C76.1009 12.5857 76.0934 12.8875 76.0775 13.1734C76.0617 13.4593 76.0375 13.7135 76.0058 13.9359H66.4991V11.6723H74.5763L73.0037 12.2442C73.0037 11.2435 72.7734 10.4731 72.3128 9.933C71.868 9.39292 71.2326 9.12288 70.4066 9.12288C69.803 9.12288 69.2789 9.2659 68.8341 9.55179C68.4052 9.83768 68.0796 10.2666 67.8572 10.8384C67.6348 11.3944 67.5236 12.1012 67.5236 12.959C67.5236 13.8008 67.6428 14.4998 67.8811 15.0557C68.1352 15.5958 68.4846 16.0008 68.9294 16.2709C69.39 16.5409 69.938 16.6759 70.5734 16.6759C71.2723 16.6759 71.8362 16.5409 72.2651 16.2709C72.694 16.0008 73.0276 15.6276 73.2658 15.151L75.8632 16.1517C75.6088 16.7713 75.2196 17.3033 74.6954 17.7481C74.1871 18.1928 73.5756 18.5344 72.8608 18.7726C72.1619 18.995 71.4073 19.1062 70.5973 19.1062Z" fill="white"/>
<path d="M81.987 2.51453V15.0766C81.987 15.7001 82.147 16.155 82.467 16.4415C82.8044 16.7279 83.2512 16.8712 83.8066 16.8712C84.2617 16.8712 84.658 16.8038 84.9953 16.669C85.3319 16.5173 85.6436 16.3151 85.9304 16.0623L86.5364 18.0338C86.1493 18.3709 85.6693 18.6405 85.0957 18.8426C84.5402 19.028 83.9168 19.1207 83.2255 19.1207C82.501 19.1207 81.8353 19.0027 81.2285 18.7669C80.6225 18.5309 80.1508 18.1518 79.8134 17.6294C79.4761 17.0902 79.2995 16.3909 79.2829 15.5316V3.2728L81.987 2.51453ZM86.3342 6.23007V8.35321H76.8564V6.23007H86.3342Z" fill="white"/>
<path d="M93.4838 5.97729C94.7132 5.97729 95.8 6.23848 96.7442 6.76085C97.6876 7.28321 98.4204 8.04151 98.9427 9.03569C99.4823 10.013 99.7517 11.1841 99.7517 12.549C99.7517 13.9139 99.4823 15.0934 98.9427 16.0876C98.4204 17.0649 97.6876 17.8148 96.7442 18.3371C95.8 18.8595 94.7132 19.1207 93.4838 19.1207C92.2536 19.1207 91.1668 18.8595 90.2227 18.3371C89.2793 17.8148 88.5381 17.0649 87.9985 16.0876C87.4596 15.0934 87.1895 13.9139 87.1895 12.549C87.1895 11.1841 87.4596 10.013 87.9985 9.03569C88.5381 8.04151 89.2793 7.28321 90.2227 6.76085C91.1668 6.23848 92.2536 5.97729 93.4838 5.97729ZM93.4838 8.10045C92.7253 8.10045 92.0762 8.27735 91.5374 8.63124C91.0151 8.9683 90.6106 9.46536 90.3238 10.1225C90.0378 10.7797 89.8944 11.5885 89.8944 12.549C89.8944 13.4926 90.0378 14.3014 90.3238 14.9755C90.6106 15.6327 91.0151 16.1382 91.5374 16.492C92.0762 16.8291 92.7253 16.9975 93.4838 16.9975C94.2415 16.9975 94.8823 16.8291 95.4045 16.492C95.9268 16.1382 96.3313 15.6327 96.6174 14.9755C96.9042 14.3014 97.0476 13.4926 97.0476 12.549C97.0476 11.5885 96.9042 10.7797 96.6174 10.1225C96.3313 9.46536 95.9268 8.9683 95.4045 8.63124C94.8823 8.27735 94.2415 8.10045 93.4838 8.10045Z" fill="white"/>
<path d="M102.095 18.868V3.14246H108.981C110.886 3.14246 112.292 3.51574 113.198 4.26231C114.103 5.00887 114.556 6.06518 114.556 7.43123C114.556 8.27308 114.302 9.01965 113.794 9.67089C113.285 10.3222 112.538 10.7352 111.554 10.9099V10.9338C112.65 11.0926 113.492 11.5056 114.08 12.1727C114.668 12.8399 114.961 13.6341 114.961 14.5553C114.961 15.9055 114.468 16.9618 113.484 17.7243C112.515 18.4867 111.093 18.868 109.219 18.868H102.095ZM105.287 16.39H108.933C109.822 16.39 110.482 16.2073 110.911 15.842C111.339 15.4766 111.554 14.9683 111.554 14.3171C111.554 13.65 111.339 13.1417 110.911 12.7922C110.482 12.4427 109.822 12.268 108.933 12.268H105.287V16.39ZM105.287 9.74244H108.551C110.283 9.74244 111.149 9.06735 111.149 7.71716C111.149 6.36698 110.283 5.6919 108.551 5.6919H105.287V9.74244Z" fill="white"/>
<path d="M120.962 19.1062C120.168 19.1062 119.453 18.9633 118.818 18.6774C118.182 18.3914 117.674 17.9388 117.293 17.3193C116.928 16.6839 116.745 15.8658 116.745 14.8651V6.95471H120.009V14.0788C120.009 15.0001 120.199 15.6434 120.581 16.0088C120.962 16.3582 121.51 16.533 122.225 16.533C122.559 16.533 122.884 16.4774 123.202 16.3662C123.519 16.2391 123.797 16.0485 124.036 15.7944C124.29 15.5402 124.489 15.2146 124.631 14.8175C124.775 14.4045 124.846 13.92 124.846 13.364V6.95471H128.11V18.868H125.203L125.084 16.7951C124.687 17.5893 124.139 18.177 123.44 18.5582C122.757 18.9236 121.931 19.1062 120.962 19.1062Z" fill="white"/>
<path d="M141.79 6.95471L136.977 19.6066C136.596 20.6867 136.167 21.5445 135.69 22.1799C135.23 22.8153 134.69 23.2759 134.07 23.5618C133.467 23.8477 132.744 23.9907 131.902 23.9907C131.283 23.9907 130.711 23.9113 130.186 23.7524C129.678 23.6095 129.234 23.4188 128.853 23.1806L129.543 20.8218C129.845 21.06 130.163 21.2268 130.496 21.3221C130.83 21.4333 131.211 21.4889 131.64 21.4889C132.085 21.4889 132.466 21.3936 132.784 21.203C133.117 21.0123 133.395 20.6311 133.618 20.0593L134.022 19.0348L132.712 15.9373L129.067 6.95471H132.688L134.951 14.1027L135.571 16.4853L136.31 13.9597L138.478 6.95471H141.79Z" fill="white"/>
</g>
<defs>
<clipPath id="clip0_2003_861">
<rect width="141.811" height="24" fill="white"/>
</clipPath>
</defs>
</svg>
